<svg width="212" height="95" viewBox="0 0 212 95" fill="none" xmlns="http://www.w3.org/2000/svg">
<path d="M74.1289 39.2261V75.6781L105.693 93.9041V57.4521L74.1289 39.2261Z" stroke="black" stroke-width="1.5" stroke-miterlimit="1" stroke-linecap="square" stroke-linejoin="round"/>
<path d="M105.693 57.452L137.274 39.226L105.693 21L74.1289 39.226L105.693 57.452Z" stroke="black" stroke-width="1.5" stroke-miterlimit="1" stroke-linecap="square" stroke-linejoin="round"/>
<path d="M137.259 39.2261V75.6781L105.694 93.9041V57.4521L137.259 39.2261Z" stroke="black" stroke-width="1.5" stroke-miterlimit="1" stroke-linecap="square" stroke-linejoin="round"/>
<path d="M147.259 39.2261V75.6781L178.823 93.9041V57.4521L147.259 39.2261Z" stroke="black" stroke-width="1.5" stroke-miterlimit="1" stroke-linecap="square" stroke-linejoin="round"/>
<path d="M178.823 57.452L210.403 39.226L178.823 21L147.259 39.226L178.823 57.452Z" stroke="black" stroke-width="1.5" stroke-miterlimit="1" stroke-linecap="square" stroke-linejoin="round"/>
<path d="M210.389 39.2261V75.6781L178.824 93.9041V57.4521L210.389 39.2261Z" stroke="black" stroke-width="1.5" stroke-miterlimit="1" stroke-linecap="square" stroke-linejoin="round"/>
<path d="M1 19.2261V55.6781L32.5644 73.9041V37.4521L1 19.2261Z" stroke="black" stroke-width="1.5" stroke-miterlimit="1" stroke-linecap="square" stroke-linejoin="round"/>
<path d="M32.5644 37.452L64.1446 19.226L32.5644 1L1 19.226L32.5644 37.452Z" stroke="black" stroke-width="1.5" stroke-miterlimit="1" stroke-linecap="square" stroke-linejoin="round"/>
<path d="M64.1299 19.2261V55.6781L32.5654 73.9041V37.4521L64.1299 19.2261Z" stroke="black" stroke-width="1.5" stroke-miterlimit="1" stroke-linecap="square" stroke-linejoin="round"/>
</svg>
