<svg width="143" height="110" viewBox="0 0 143 110" fill="none" xmlns="http://www.w3.org/2000/svg">
<path d="M141.872 1V72.979L79.5439 108.969V36.9895L141.872 1Z" stroke="black" stroke-width="1.5" stroke-miterlimit="1" stroke-linecap="square" stroke-linejoin="round"/>
<path d="M111.982 69.7898L111.982 69.7893C115.461 67.777 118.566 64.3647 120.797 60.5013C123.028 56.6381 124.425 52.2534 124.413 48.2543C124.402 44.2588 122.975 41.2566 120.464 39.8253C117.956 38.395 114.631 38.6846 111.156 40.6891L111.155 40.6896C107.676 42.7019 104.571 46.1142 102.34 49.9776C100.11 53.8408 98.7124 58.2255 98.7237 62.2247C98.7351 66.2201 100.163 69.2224 102.673 70.6536C105.181 72.0839 108.506 71.7943 111.982 69.7898ZM111.873 30.87L111.873 30.87C121.631 25.2362 128.679 26.0723 133.507 28.643C138.168 31.1243 140.895 35.2934 141.987 37.2842C140.923 40.4441 138.11 48.064 133.236 56.3132C128.192 64.8502 120.976 73.9991 111.264 79.609C101.506 85.2427 94.4579 84.4066 89.6313 81.836C84.9715 79.3543 82.2465 75.1842 81.1601 73.195C82.2185 70.0366 85.029 62.4132 89.9027 54.1615C94.9457 45.6232 102.161 36.4744 111.873 30.87Z" stroke="black" stroke-width="1.5"/>
<path d="M63.3279 1V72.979L1 108.969V36.9895L63.3279 1Z" stroke="black" stroke-width="1.5" stroke-miterlimit="1" stroke-linecap="square" stroke-linejoin="round"/>
<path d="M33.4376 69.7898L33.4384 69.7893C36.9173 67.777 40.0222 64.3647 42.253 60.5013C44.4836 56.6381 45.8809 52.2534 45.8695 48.2543C45.8582 44.2588 44.4306 41.2566 41.9204 39.8253C39.412 38.395 36.0869 38.6846 32.6117 40.6891L32.6109 40.6896C29.132 42.7019 26.0271 46.1142 23.7964 49.9776C21.5657 53.8408 20.1684 58.2255 20.1798 62.2247C20.1912 66.2201 21.6187 69.2224 24.1289 70.6536C26.6373 72.0839 29.9624 71.7943 33.4376 69.7898ZM33.3286 30.87L33.3287 30.87C43.0875 25.2362 50.1354 26.0723 54.9634 28.643C59.6238 31.1243 62.3512 35.2934 63.4434 37.2842C62.3794 40.4441 59.5664 48.064 54.6921 56.3132C49.6476 64.8502 42.4318 73.9991 32.7204 79.609C22.9617 85.2427 15.9139 84.4066 11.0873 81.836C6.42756 79.3543 3.70257 75.1842 2.6162 73.195C3.67455 70.0366 6.48503 62.4132 11.3587 54.1615C16.4017 45.6232 23.6175 36.4744 33.3286 30.87Z" stroke="black" stroke-width="1.5"/>
<path d="M111.575 55.2395L32.1644 55.2397" stroke="black" stroke-width="1.5" stroke-linecap="round"/>
</svg>
