<svg width="179" height="104" viewBox="0 0 179 104" fill="none" xmlns="http://www.w3.org/2000/svg">
<path d="M26.345 66.0727L51.4593 51.5783L26.345 37.084L1.24316 51.5783L26.345 66.0727Z" stroke="black" stroke-width="1.5" stroke-miterlimit="1" stroke-linecap="square" stroke-linejoin="round"/>
<path d="M57.6995 47.9936L82.8138 33.4992L57.6995 19.0049L32.5977 33.4992L57.6995 47.9936Z" stroke="black" stroke-width="1.5" stroke-miterlimit="1" stroke-linecap="square" stroke-linejoin="round"/>
<path d="M89.2082 29.9887L114.323 15.4943L89.2082 1L64.1064 15.4943L89.2082 29.9887Z" stroke="black" stroke-width="1.5" stroke-miterlimit="1" stroke-linecap="square" stroke-linejoin="round"/>
<path d="M57.7776 84.0776L82.8919 69.5832L57.7776 55.0889L32.6758 69.5832L57.7776 84.0776Z" stroke="black" stroke-width="1.5" stroke-miterlimit="1" stroke-linecap="square" stroke-linejoin="round"/>
<path d="M89.1301 65.9989L114.244 51.5046L89.1301 37.0103L64.0283 51.5046L89.1301 65.9989Z" stroke="black" stroke-width="1.5" stroke-miterlimit="1" stroke-linecap="square" stroke-linejoin="round"/>
<path d="M120.64 47.9936L145.754 33.4992L120.64 19.0049L95.5381 33.4992L120.64 47.9936Z" stroke="black" stroke-width="1.5" stroke-miterlimit="1" stroke-linecap="square" stroke-linejoin="round"/>
<path d="M89.7024 102.582L114.817 88.0881L89.7024 73.5938L64.6006 88.0881L89.7024 102.582Z" stroke="black" stroke-width="1.5" stroke-miterlimit="1" stroke-linecap="square" stroke-linejoin="round"/>
<path d="M121.057 84.5043L146.171 70.01L121.057 55.5156L95.9551 70.01L121.057 84.5043Z" stroke="black" stroke-width="1.5" stroke-miterlimit="1" stroke-linecap="square" stroke-linejoin="round"/>
<path d="M152.566 66.4985L177.68 52.0041L152.566 37.5098L127.464 52.0041L152.566 66.4985Z" stroke="black" stroke-width="1.5" stroke-miterlimit="1" stroke-linecap="square" stroke-linejoin="round"/>
<path d="M121.062 84.0664L121.062 56.0061" stroke="black" stroke-width="1.5"/>
<path d="M96.946 69.9712L144.854 69.9713" stroke="black" stroke-width="1.5"/>
<path d="M89.2988 29.5249L89.2991 1.46455" stroke="black" stroke-width="1.5"/>
<path d="M65.1833 15.4297L113.092 15.4298" stroke="black" stroke-width="1.5"/>
</svg>
